<svg aria-roledescription="er" role="graphics-document document" viewBox="0 0 1194.268310546875 469" style="max-width: 1194.27px; background-color: white;" xmlns:xlink="http://www.w3.org/1999/xlink" xmlns="http://www.w3.org/2000/svg" width="100%" id="my-svg"><style>#my-svg{font-family:"trebuchet ms",verdana,arial,sans-serif;font-size:16px;fill:#333;}#my-svg .error-icon{fill:#552222;}#my-svg .error-text{fill:#552222;stroke:#552222;}#my-svg .edge-thickness-normal{stroke-width:1px;}#my-svg .edge-thickness-thick{stroke-width:3.5px;}#my-svg .edge-pattern-solid{stroke-dasharray:0;}#my-svg .edge-thickness-invisible{stroke-width:0;fill:none;}#my-svg .edge-pattern-dashed{stroke-dasharray:3;}#my-svg .edge-pattern-dotted{stroke-dasharray:2;}#my-svg .marker{fill:#333333;stroke:#333333;}#my-svg .marker.cross{stroke:#333333;}#my-svg svg{font-family:"trebuchet ms",verdana,arial,sans-serif;font-size:16px;}#my-svg p{margin:0;}#my-svg .entityBox{fill:#ECECFF;stroke:#9370DB;}#my-svg .attributeBoxOdd{fill:#ffffff;stroke:#9370DB;}#my-svg .attributeBoxEven{fill:#f2f2f2;stroke:#9370DB;}#my-svg .relationshipLabelBox{fill:hsl(80, 100%, 96.2745098039%);opacity:0.7;background-color:hsl(80, 100%, 96.2745098039%);}#my-svg .relationshipLabelBox rect{opacity:0.5;}#my-svg .relationshipLine{stroke:#333333;}#my-svg .entityTitleText{text-anchor:middle;font-size:18px;fill:#333;}#my-svg #MD_PARENT_START{fill:#f5f5f5!important;stroke:#333333!important;stroke-width:1;}#my-svg #MD_PARENT_END{fill:#f5f5f5!important;stroke:#333333!important;stroke-width:1;}#my-svg :root{--mermaid-font-family:"trebuchet ms",verdana,arial,sans-serif;}</style><g/><defs><marker orient="auto" markerHeight="240" markerWidth="190" refY="7" refX="0" id="MD_PARENT_START"><path d="M 18,7 L9,13 L1,7 L9,1 Z"/></marker></defs><defs><marker orient="auto" markerHeight="28" markerWidth="20" refY="7" refX="19" id="MD_PARENT_END"><path d="M 18,7 L9,13 L1,7 L9,1 Z"/></marker></defs><defs><marker orient="auto" markerHeight="18" markerWidth="18" refY="9" refX="0" id="ONLY_ONE_START"><path d="M9,0 L9,18 M15,0 L15,18" fill="none" stroke="gray"/></marker></defs><defs><marker orient="auto" markerHeight="18" markerWidth="18" refY="9" refX="18" id="ONLY_ONE_END"><path d="M3,0 L3,18 M9,0 L9,18" fill="none" stroke="gray"/></marker></defs><defs><marker orient="auto" markerHeight="18" markerWidth="30" refY="9" refX="0" id="ZERO_OR_ONE_START"><circle r="6" cy="9" cx="21" fill="white" stroke="gray"/><path d="M9,0 L9,18" fill="none" stroke="gray"/></marker></defs><defs><marker orient="auto" markerHeight="18" markerWidth="30" refY="9" refX="30" id="ZERO_OR_ONE_END"><circle r="6" cy="9" cx="9" fill="white" stroke="gray"/><path d="M21,0 L21,18" fill="none" stroke="gray"/></marker></defs><defs><marker orient="auto" markerHeight="36" markerWidth="45" refY="18" refX="18" id="ONE_OR_MORE_START"><path d="M0,18 Q 18,0 36,18 Q 18,36 0,18 M42,9 L42,27" fill="none" stroke="gray"/></marker></defs><defs><marker orient="auto" markerHeight="36" markerWidth="45" refY="18" refX="27" id="ONE_OR_MORE_END"><path d="M3,9 L3,27 M9,18 Q27,0 45,18 Q27,36 9,18" fill="none" stroke="gray"/></marker></defs><defs><marker orient="auto" markerHeight="36" markerWidth="57" refY="18" refX="18" id="ZERO_OR_MORE_START"><circle r="6" cy="18" cx="48" fill="white" stroke="gray"/><path d="M0,18 Q18,0 36,18 Q18,36 0,18" fill="none" stroke="gray"/></marker></defs><defs><marker orient="auto" markerHeight="36" markerWidth="57" refY="18" refX="39" id="ZERO_OR_MORE_END"><circle r="6" cy="18" cx="9" fill="white" stroke="gray"/><path d="M21,18 Q39,0 57,18 Q39,36 21,18" fill="none" stroke="gray"/></marker></defs><path style="stroke: gray; fill: none;" marker-start="url(#ONLY_ONE_START)" marker-end="url(#ZERO_OR_MORE_END)" d="M88.555,97.5L88.555,111.25C88.555,125,88.555,152.5,97.737,178.25C106.92,204,125.286,228,134.469,240L143.651,252" class="er relationshipLine"/><path style="stroke: gray; fill: none;" marker-start="url(#ONLY_ONE_START)" marker-end="url(#ZERO_OR_MORE_END)" d="M332.664,97.5L332.664,111.25C332.664,125,332.664,152.5,323.481,178.25C314.298,204,295.933,228,286.75,240L277.567,252" class="er relationshipLine"/><path style="stroke: gray; fill: none;" marker-start="url(#ONLY_ONE_START)" marker-end="url(#ZERO_OR_MORE_END)" d="M845.289,97.5L845.289,111.25C845.289,125,845.289,152.5,851.726,174.583C858.163,196.667,871.037,213.333,877.474,221.667L883.911,230" class="er relationshipLine"/><path style="stroke: gray; fill: none;" marker-start="url(#ONLY_ONE_START)" marker-end="url(#ZERO_OR_MORE_END)" d="M1091.697,130L1091.697,138.333C1091.697,146.667,1091.697,163.333,1085.26,180C1078.823,196.667,1065.949,213.333,1059.512,221.667L1053.075,230" class="er relationshipLine"/><g transform="translate(20,52.5 )" id="entity-publicassettypes-22f57263-1b66-5f02-8660-67bf4ac0bf66"><rect height="45" width="137.109375" y="0" x="0" class="er entityBox"/><text style="dominant-baseline: middle; text-anchor: middle; font-size: 12px;" transform="translate(68.5546875,12)" y="0" x="0" id="text-entity-publicassettypes-22f57263-1b66-5f02-8660-67bf4ac0bf66" class="er entityLabel">publicasset_types</text><rect height="21" width="64.57567342122395" y="24" x="0" class="er attributeBoxOdd"/><text style="dominant-baseline: middle; font-size: 10.2px;" transform="translate(5,34.5)" y="0" x="0" id="text-entity-publicassettypes-22f57263-1b66-5f02-8660-67bf4ac0bf66-attr-1-type" class="er entityLabel">varchar</text><rect height="21" width="34.35143025716146" y="24" x="64.57567342122395" class="er attributeBoxOdd"/><text style="dominant-baseline: middle; font-size: 10.2px;" transform="translate(69.57567342122395,34.5)" y="0" x="0" id="text-entity-publicassettypes-22f57263-1b66-5f02-8660-67bf4ac0bf66-attr-1-name" class="er entityLabel">id</text><rect height="21" width="38.182271321614586" y="24" x="98.92710367838541" class="er attributeBoxOdd"/><text style="dominant-baseline: middle; font-size: 10.2px;" transform="translate(103.92710367838541,34.5)" y="0" x="0" id="text-entity-publicassettypes-22f57263-1b66-5f02-8660-67bf4ac0bf66-attr-1-key" class="er entityLabel">PK</text></g><g transform="translate(257.109375,52.5 )" id="entity-publiccontenttypes-d1a2bfc0-9ae7-5671-b8ec-1878e8e70073"><rect height="45" width="151.109375" y="0" x="0" class="er entityBox"/><text style="dominant-baseline: middle; text-anchor: middle; font-size: 12px;" transform="translate(75.5546875,12)" y="0" x="0" id="text-entity-publiccontenttypes-d1a2bfc0-9ae7-5671-b8ec-1878e8e70073" class="er entityLabel">publiccontent_types</text><rect height="21" width="69.24234008789062" y="24" x="0" class="er attributeBoxOdd"/><text style="dominant-baseline: middle; font-size: 10.2px;" transform="translate(5,34.5)" y="0" x="0" id="text-entity-publiccontenttypes-d1a2bfc0-9ae7-5671-b8ec-1878e8e70073-attr-1-type" class="er entityLabel">varchar</text><rect height="21" width="39.018096923828125" y="24" x="69.24234008789062" class="er attributeBoxOdd"/><text style="dominant-baseline: middle; font-size: 10.2px;" transform="translate(74.24234008789062,34.5)" y="0" x="0" id="text-entity-publiccontenttypes-d1a2bfc0-9ae7-5671-b8ec-1878e8e70073-attr-1-name" class="er entityLabel">id</text><rect height="21" width="42.84893798828125" y="24" x="108.26043701171875" class="er attributeBoxOdd"/><text style="dominant-baseline: middle; font-size: 10.2px;" transform="translate(113.26043701171875,34.5)" y="0" x="0" id="text-entity-publiccontenttypes-d1a2bfc0-9ae7-5671-b8ec-1878e8e70073-attr-1-key" class="er entityLabel">PK</text></g><g transform="translate(508.21875,20 )" id="entity-publicgoosedbversion-1964ee7c-68ca-58cb-98fb-c308cf65aafa"><rect height="110" width="173.234375" y="0" x="0" class="er entityBox"/><text style="dominant-baseline: middle; text-anchor: middle; font-size: 12px;" transform="translate(86.6171875,12)" y="0" x="0" id="text-entity-publicgoosedbversion-1964ee7c-68ca-58cb-98fb-c308cf65aafa" class="er entityLabel">publicgoose_db_version</text><rect height="21" width="72.75951131184895" y="24" x="0" class="er attributeBoxOdd"/><text style="dominant-baseline: middle; font-size: 10.2px;" transform="translate(5,34.5)" y="0" x="0" id="text-entity-publicgoosedbversion-1964ee7c-68ca-58cb-98fb-c308cf65aafa-attr-1-type" class="er entityLabel">int4</text><rect height="21" width="69.52513631184895" y="24" x="72.75951131184895" class="er attributeBoxOdd"/><text style="dominant-baseline: middle; font-size: 10.2px;" transform="translate(77.75951131184895,34.5)" y="0" x="0" id="text-entity-publicgoosedbversion-1964ee7c-68ca-58cb-98fb-c308cf65aafa-attr-1-name" class="er entityLabel">id</text><rect height="21" width="30.949727376302082" y="24" x="142.2846476236979" class="er attributeBoxOdd"/><text style="dominant-baseline: middle; font-size: 10.2px;" transform="translate(147.2846476236979,34.5)" y="0" x="0" id="text-entity-publicgoosedbversion-1964ee7c-68ca-58cb-98fb-c308cf65aafa-attr-1-key" class="er entityLabel">PK</text><rect height="22" width="72.75951131184895" y="45" x="0" class="er attributeBoxEven"/><text style="dominant-baseline: middle; font-size: 10.2px;" transform="translate(5,56)" y="0" x="0" id="text-entity-publicgoosedbversion-1964ee7c-68ca-58cb-98fb-c308cf65aafa-attr-2-type" class="er entityLabel">int8</text><rect height="22" width="69.52513631184895" y="45" x="72.75951131184895" class="er attributeBoxEven"/><text style="dominant-baseline: middle; font-size: 10.2px;" transform="translate(77.75951131184895,56)" y="0" x="0" id="text-entity-publicgoosedbversion-1964ee7c-68ca-58cb-98fb-c308cf65aafa-attr-2-name" class="er entityLabel">version_id</text><rect height="22" width="30.949727376302082" y="45" x="142.2846476236979" class="er attributeBoxEven"/><text style="dominant-baseline: middle; font-size: 10.2px;" transform="translate(147.2846476236979,56)" y="0" x="0" id="text-entity-publicgoosedbversion-1964ee7c-68ca-58cb-98fb-c308cf65aafa-attr-2-key" class="er entityLabel"/><rect height="22" width="72.75951131184895" y="67" x="0" class="er attributeBoxOdd"/><text style="dominant-baseline: middle; font-size: 10.2px;" transform="translate(5,78)" y="0" x="0" id="text-entity-publicgoosedbversion-1964ee7c-68ca-58cb-98fb-c308cf65aafa-attr-3-type" class="er entityLabel">bool</text><rect height="22" width="69.52513631184895" y="67" x="72.75951131184895" class="er attributeBoxOdd"/><text style="dominant-baseline: middle; font-size: 10.2px;" transform="translate(77.75951131184895,78)" y="0" x="0" id="text-entity-publicgoosedbversion-1964ee7c-68ca-58cb-98fb-c308cf65aafa-attr-3-name" class="er entityLabel">is_applied</text><rect height="22" width="30.949727376302082" y="67" x="142.2846476236979" class="er attributeBoxOdd"/><text style="dominant-baseline: middle; font-size: 10.2px;" transform="translate(147.2846476236979,78)" y="0" x="0" id="text-entity-publicgoosedbversion-1964ee7c-68ca-58cb-98fb-c308cf65aafa-attr-3-key" class="er entityLabel"/><rect height="21" width="72.75951131184895" y="89" x="0" class="er attributeBoxEven"/><text style="dominant-baseline: middle; font-size: 10.2px;" transform="translate(5,99.5)" y="0" x="0" id="text-entity-publicgoosedbversion-1964ee7c-68ca-58cb-98fb-c308cf65aafa-attr-4-type" class="er entityLabel">timestamp</text><rect height="21" width="69.52513631184895" y="89" x="72.75951131184895" class="er attributeBoxEven"/><text style="dominant-baseline: middle; font-size: 10.2px;" transform="translate(77.75951131184895,99.5)" y="0" x="0" id="text-entity-publicgoosedbversion-1964ee7c-68ca-58cb-98fb-c308cf65aafa-attr-4-name" class="er entityLabel">tstamp</text><rect height="21" width="30.949727376302082" y="89" x="142.2846476236979" class="er attributeBoxEven"/><text style="dominant-baseline: middle; font-size: 10.2px;" transform="translate(147.2846476236979,99.5)" y="0" x="0" id="text-entity-publicgoosedbversion-1964ee7c-68ca-58cb-98fb-c308cf65aafa-attr-4-key" class="er entityLabel"/></g><g transform="translate(781.453125,52.5 )" id="entity-publicstaffroles-f675a3a1-74d9-5b58-9cf8-4b32f8ec32d9"><rect height="45" width="127.671875" y="0" x="0" class="er entityBox"/><text style="dominant-baseline: middle; text-anchor: middle; font-size: 12px;" transform="translate(63.8359375,12)" y="0" x="0" id="text-entity-publicstaffroles-f675a3a1-74d9-5b58-9cf8-4b32f8ec32d9" class="er entityLabel">publicstaff_roles</text><rect height="21" width="61.429840087890625" y="24" x="0" class="er attributeBoxOdd"/><text style="dominant-baseline: middle; font-size: 10.2px;" transform="translate(5,34.5)" y="0" x="0" id="text-entity-publicstaffroles-f675a3a1-74d9-5b58-9cf8-4b32f8ec32d9-attr-1-type" class="er entityLabel">varchar</text><rect height="21" width="31.205596923828125" y="24" x="61.429840087890625" class="er attributeBoxOdd"/><text style="dominant-baseline: middle; font-size: 10.2px;" transform="translate(66.42984008789062,34.5)" y="0" x="0" id="text-entity-publicstaffroles-f675a3a1-74d9-5b58-9cf8-4b32f8ec32d9-attr-1-name" class="er entityLabel">id</text><rect height="21" width="35.03643798828125" y="24" x="92.63543701171875" class="er attributeBoxOdd"/><text style="dominant-baseline: middle; font-size: 10.2px;" transform="translate(97.63543701171875,34.5)" y="0" x="0" id="text-entity-publicstaffroles-f675a3a1-74d9-5b58-9cf8-4b32f8ec32d9-attr-1-key" class="er entityLabel">PK</text></g><g transform="translate(1009.125,20 )" id="entity-publictenants-7a89df9d-e62a-5cfd-80ad-995dca9dd830"><rect height="110" width="165.14334106445312" y="0" x="0" class="er entityBox"/><text style="dominant-baseline: middle; text-anchor: middle; font-size: 12px;" transform="translate(82.57167053222656,12)" y="0" x="0" id="text-entity-publictenants-7a89df9d-e62a-5cfd-80ad-995dca9dd830" class="er entityLabel">publictenants</text><rect height="21" width="74.296875" y="24" x="0" class="er attributeBoxOdd"/><text style="dominant-baseline: middle; font-size: 10.2px;" transform="translate(5,34.5)" y="0" x="0" id="text-entity-publictenants-7a89df9d-e62a-5cfd-80ad-995dca9dd830-attr-1-type" class="er entityLabel">varchar</text><rect height="21" width="67.703125" y="24" x="74.296875" class="er attributeBoxOdd"/><text style="dominant-baseline: middle; font-size: 10.2px;" transform="translate(79.296875,34.5)" y="0" x="0" id="text-entity-publictenants-7a89df9d-e62a-5cfd-80ad-995dca9dd830-attr-1-name" class="er entityLabel">id</text><rect height="21" width="23.143341064453125" y="24" x="142" class="er attributeBoxOdd"/><text style="dominant-baseline: middle; font-size: 10.2px;" transform="translate(147,34.5)" y="0" x="0" id="text-entity-publictenants-7a89df9d-e62a-5cfd-80ad-995dca9dd830-attr-1-key" class="er entityLabel">PK</text><rect height="21" width="74.296875" y="45" x="0" class="er attributeBoxEven"/><text style="dominant-baseline: middle; font-size: 10.2px;" transform="translate(5,55.5)" y="0" x="0" id="text-entity-publictenants-7a89df9d-e62a-5cfd-80ad-995dca9dd830-attr-2-type" class="er entityLabel">varchar</text><rect height="21" width="67.703125" y="45" x="74.296875" class="er attributeBoxEven"/><text style="dominant-baseline: middle; font-size: 10.2px;" transform="translate(79.296875,55.5)" y="0" x="0" id="text-entity-publictenants-7a89df9d-e62a-5cfd-80ad-995dca9dd830-attr-2-name" class="er entityLabel">name</text><rect height="21" width="23.143341064453125" y="45" x="142" class="er attributeBoxEven"/><text style="dominant-baseline: middle; font-size: 10.2px;" transform="translate(147,55.5)" y="0" x="0" id="text-entity-publictenants-7a89df9d-e62a-5cfd-80ad-995dca9dd830-attr-2-key" class="er entityLabel"/><rect height="22" width="74.296875" y="66" x="0" class="er attributeBoxOdd"/><text style="dominant-baseline: middle; font-size: 10.2px;" transform="translate(5,77)" y="0" x="0" id="text-entity-publictenants-7a89df9d-e62a-5cfd-80ad-995dca9dd830-attr-3-type" class="er entityLabel">timestamptz</text><rect height="22" width="67.703125" y="66" x="74.296875" class="er attributeBoxOdd"/><text style="dominant-baseline: middle; font-size: 10.2px;" transform="translate(79.296875,77)" y="0" x="0" id="text-entity-publictenants-7a89df9d-e62a-5cfd-80ad-995dca9dd830-attr-3-name" class="er entityLabel">created_at</text><rect height="22" width="23.143341064453125" y="66" x="142" class="er attributeBoxOdd"/><text style="dominant-baseline: middle; font-size: 10.2px;" transform="translate(147,77)" y="0" x="0" id="text-entity-publictenants-7a89df9d-e62a-5cfd-80ad-995dca9dd830-attr-3-key" class="er entityLabel"/><rect height="22" width="74.296875" y="88" x="0" class="er attributeBoxEven"/><text style="dominant-baseline: middle; font-size: 10.2px;" transform="translate(5,99)" y="0" x="0" id="text-entity-publictenants-7a89df9d-e62a-5cfd-80ad-995dca9dd830-attr-4-type" class="er entityLabel">timestamptz</text><rect height="22" width="67.703125" y="88" x="74.296875" class="er attributeBoxEven"/><text style="dominant-baseline: middle; font-size: 10.2px;" transform="translate(79.296875,99)" y="0" x="0" id="text-entity-publictenants-7a89df9d-e62a-5cfd-80ad-995dca9dd830-attr-4-name" class="er entityLabel">updated_at</text><rect height="22" width="23.143341064453125" y="88" x="142" class="er attributeBoxEven"/><text style="dominant-baseline: middle; font-size: 10.2px;" transform="translate(147,99)" y="0" x="0" id="text-entity-publictenants-7a89df9d-e62a-5cfd-80ad-995dca9dd830-attr-4-key" class="er entityLabel"/></g><g transform="translate(123.45957946777344,252 )" id="entity-publicassets-f68f14ba-438a-5946-baaf-ed49ca5b2384"><rect height="175" width="174.29959106445312" y="0" x="0" class="er entityBox"/><text style="dominant-baseline: middle; text-anchor: middle; font-size: 12px;" transform="translate(87.14979553222656,12)" y="0" x="0" id="text-entity-publicassets-f68f14ba-438a-5946-baaf-ed49ca5b2384" class="er entityLabel">publicassets</text><rect height="21" width="74.296875" y="24" x="0" class="er attributeBoxOdd"/><text style="dominant-baseline: middle; font-size: 10.2px;" transform="translate(5,34.5)" y="0" x="0" id="text-entity-publicassets-f68f14ba-438a-5946-baaf-ed49ca5b2384-attr-1-type" class="er entityLabel">varchar</text><rect height="21" width="76.859375" y="24" x="74.296875" class="er attributeBoxOdd"/><text style="dominant-baseline: middle; font-size: 10.2px;" transform="translate(79.296875,34.5)" y="0" x="0" id="text-entity-publicassets-f68f14ba-438a-5946-baaf-ed49ca5b2384-attr-1-name" class="er entityLabel">id</text><rect height="21" width="23.143341064453125" y="24" x="151.15625" class="er attributeBoxOdd"/><text style="dominant-baseline: middle; font-size: 10.2px;" transform="translate(156.15625,34.5)" y="0" x="0" id="text-entity-publicassets-f68f14ba-438a-5946-baaf-ed49ca5b2384-attr-1-key" class="er entityLabel">PK</text><rect height="22" width="74.296875" y="45" x="0" class="er attributeBoxEven"/><text style="dominant-baseline: middle; font-size: 10.2px;" transform="translate(5,56)" y="0" x="0" id="text-entity-publicassets-f68f14ba-438a-5946-baaf-ed49ca5b2384-attr-2-type" class="er entityLabel">varchar</text><rect height="22" width="76.859375" y="45" x="74.296875" class="er attributeBoxEven"/><text style="dominant-baseline: middle; font-size: 10.2px;" transform="translate(79.296875,56)" y="0" x="0" id="text-entity-publicassets-f68f14ba-438a-5946-baaf-ed49ca5b2384-attr-2-name" class="er entityLabel">content_type</text><rect height="22" width="23.143341064453125" y="45" x="151.15625" class="er attributeBoxEven"/><text style="dominant-baseline: middle; font-size: 10.2px;" transform="translate(156.15625,56)" y="0" x="0" id="text-entity-publicassets-f68f14ba-438a-5946-baaf-ed49ca5b2384-attr-2-key" class="er entityLabel">FK</text><rect height="21" width="74.296875" y="67" x="0" class="er attributeBoxOdd"/><text style="dominant-baseline: middle; font-size: 10.2px;" transform="translate(5,77.5)" y="0" x="0" id="text-entity-publicassets-f68f14ba-438a-5946-baaf-ed49ca5b2384-attr-3-type" class="er entityLabel">varchar</text><rect height="21" width="76.859375" y="67" x="74.296875" class="er attributeBoxOdd"/><text style="dominant-baseline: middle; font-size: 10.2px;" transform="translate(79.296875,77.5)" y="0" x="0" id="text-entity-publicassets-f68f14ba-438a-5946-baaf-ed49ca5b2384-attr-3-name" class="er entityLabel">type</text><rect height="21" width="23.143341064453125" y="67" x="151.15625" class="er attributeBoxOdd"/><text style="dominant-baseline: middle; font-size: 10.2px;" transform="translate(156.15625,77.5)" y="0" x="0" id="text-entity-publicassets-f68f14ba-438a-5946-baaf-ed49ca5b2384-attr-3-key" class="er entityLabel">FK</text><rect height="21" width="74.296875" y="88" x="0" class="er attributeBoxEven"/><text style="dominant-baseline: middle; font-size: 10.2px;" transform="translate(5,98.5)" y="0" x="0" id="text-entity-publicassets-f68f14ba-438a-5946-baaf-ed49ca5b2384-attr-4-type" class="er entityLabel">text</text><rect height="21" width="76.859375" y="88" x="74.296875" class="er attributeBoxEven"/><text style="dominant-baseline: middle; font-size: 10.2px;" transform="translate(79.296875,98.5)" y="0" x="0" id="text-entity-publicassets-f68f14ba-438a-5946-baaf-ed49ca5b2384-attr-4-name" class="er entityLabel">path</text><rect height="21" width="23.143341064453125" y="88" x="151.15625" class="er attributeBoxEven"/><text style="dominant-baseline: middle; font-size: 10.2px;" transform="translate(156.15625,98.5)" y="0" x="0" id="text-entity-publicassets-f68f14ba-438a-5946-baaf-ed49ca5b2384-attr-4-key" class="er entityLabel"/><rect height="22" width="74.296875" y="109" x="0" class="er attributeBoxOdd"/><text style="dominant-baseline: middle; font-size: 10.2px;" transform="translate(5,120)" y="0" x="0" id="text-entity-publicassets-f68f14ba-438a-5946-baaf-ed49ca5b2384-attr-5-type" class="er entityLabel">timestamptz</text><rect height="22" width="76.859375" y="109" x="74.296875" class="er attributeBoxOdd"/><text style="dominant-baseline: middle; font-size: 10.2px;" transform="translate(79.296875,120)" y="0" x="0" id="text-entity-publicassets-f68f14ba-438a-5946-baaf-ed49ca5b2384-attr-5-name" class="er entityLabel">expires_at</text><rect height="22" width="23.143341064453125" y="109" x="151.15625" class="er attributeBoxOdd"/><text style="dominant-baseline: middle; font-size: 10.2px;" transform="translate(156.15625,120)" y="0" x="0" id="text-entity-publicassets-f68f14ba-438a-5946-baaf-ed49ca5b2384-attr-5-key" class="er entityLabel"/><rect height="22" width="74.296875" y="131" x="0" class="er attributeBoxEven"/><text style="dominant-baseline: middle; font-size: 10.2px;" transform="translate(5,142)" y="0" x="0" id="text-entity-publicassets-f68f14ba-438a-5946-baaf-ed49ca5b2384-attr-6-type" class="er entityLabel">timestamptz</text><rect height="22" width="76.859375" y="131" x="74.296875" class="er attributeBoxEven"/><text style="dominant-baseline: middle; font-size: 10.2px;" transform="translate(79.296875,142)" y="0" x="0" id="text-entity-publicassets-f68f14ba-438a-5946-baaf-ed49ca5b2384-attr-6-name" class="er entityLabel">created_at</text><rect height="22" width="23.143341064453125" y="131" x="151.15625" class="er attributeBoxEven"/><text style="dominant-baseline: middle; font-size: 10.2px;" transform="translate(156.15625,142)" y="0" x="0" id="text-entity-publicassets-f68f14ba-438a-5946-baaf-ed49ca5b2384-attr-6-key" class="er entityLabel"/><rect height="22" width="74.296875" y="153" x="0" class="er attributeBoxOdd"/><text style="dominant-baseline: middle; font-size: 10.2px;" transform="translate(5,164)" y="0" x="0" id="text-entity-publicassets-f68f14ba-438a-5946-baaf-ed49ca5b2384-attr-7-type" class="er entityLabel">timestamptz</text><rect height="22" width="76.859375" y="153" x="74.296875" class="er attributeBoxOdd"/><text style="dominant-baseline: middle; font-size: 10.2px;" transform="translate(79.296875,164)" y="0" x="0" id="text-entity-publicassets-f68f14ba-438a-5946-baaf-ed49ca5b2384-attr-7-name" class="er entityLabel">updated_at</text><rect height="22" width="23.143341064453125" y="153" x="151.15625" class="er attributeBoxOdd"/><text style="dominant-baseline: middle; font-size: 10.2px;" transform="translate(156.15625,164)" y="0" x="0" id="text-entity-publicassets-f68f14ba-438a-5946-baaf-ed49ca5b2384-attr-7-key" class="er entityLabel"/></g><g transform="translate(879.0302047729492,230 )" id="entity-publicstaffs-14d9d75b-dcfa-56e9-9715-711782376447"><rect height="219" width="178.92532348632812" y="0" x="0" class="er entityBox"/><text style="dominant-baseline: middle; text-anchor: middle; font-size: 12px;" transform="translate(89.46266174316406,12)" y="0" x="0" id="text-entity-publicstaffs-14d9d75b-dcfa-56e9-9715-711782376447" class="er entityLabel">publicstaffs</text><rect height="21" width="74.296875" y="24" x="0" class="er attributeBoxOdd"/><text style="dominant-baseline: middle; font-size: 10.2px;" transform="translate(5,34.5)" y="0" x="0" id="text-entity-publicstaffs-14d9d75b-dcfa-56e9-9715-711782376447-attr-1-type" class="er entityLabel">varchar</text><rect height="21" width="80.171875" y="24" x="74.296875" class="er attributeBoxOdd"/><text style="dominant-baseline: middle; font-size: 10.2px;" transform="translate(79.296875,34.5)" y="0" x="0" id="text-entity-publicstaffs-14d9d75b-dcfa-56e9-9715-711782376447-attr-1-name" class="er entityLabel">id</text><rect height="21" width="24.456573486328125" y="24" x="154.46875" class="er attributeBoxOdd"/><text style="dominant-baseline: middle; font-size: 10.2px;" transform="translate(159.46875,34.5)" y="0" x="0" id="text-entity-publicstaffs-14d9d75b-dcfa-56e9-9715-711782376447-attr-1-key" class="er entityLabel">PK</text><rect height="22" width="74.296875" y="45" x="0" class="er attributeBoxEven"/><text style="dominant-baseline: middle; font-size: 10.2px;" transform="translate(5,56)" y="0" x="0" id="text-entity-publicstaffs-14d9d75b-dcfa-56e9-9715-711782376447-attr-2-type" class="er entityLabel">varchar</text><rect height="22" width="80.171875" y="45" x="74.296875" class="er attributeBoxEven"/><text style="dominant-baseline: middle; font-size: 10.2px;" transform="translate(79.296875,56)" y="0" x="0" id="text-entity-publicstaffs-14d9d75b-dcfa-56e9-9715-711782376447-attr-2-name" class="er entityLabel">tenant_id</text><rect height="22" width="24.456573486328125" y="45" x="154.46875" class="er attributeBoxEven"/><text style="dominant-baseline: middle; font-size: 10.2px;" transform="translate(159.46875,56)" y="0" x="0" id="text-entity-publicstaffs-14d9d75b-dcfa-56e9-9715-711782376447-attr-2-key" class="er entityLabel">FK</text><rect height="21" width="74.296875" y="67" x="0" class="er attributeBoxOdd"/><text style="dominant-baseline: middle; font-size: 10.2px;" transform="translate(5,77.5)" y="0" x="0" id="text-entity-publicstaffs-14d9d75b-dcfa-56e9-9715-711782376447-attr-3-type" class="er entityLabel">varchar</text><rect height="21" width="80.171875" y="67" x="74.296875" class="er attributeBoxOdd"/><text style="dominant-baseline: middle; font-size: 10.2px;" transform="translate(79.296875,77.5)" y="0" x="0" id="text-entity-publicstaffs-14d9d75b-dcfa-56e9-9715-711782376447-attr-3-name" class="er entityLabel">role</text><rect height="21" width="24.456573486328125" y="67" x="154.46875" class="er attributeBoxOdd"/><text style="dominant-baseline: middle; font-size: 10.2px;" transform="translate(159.46875,77.5)" y="0" x="0" id="text-entity-publicstaffs-14d9d75b-dcfa-56e9-9715-711782376447-attr-3-key" class="er entityLabel">FK</text><rect height="22" width="74.296875" y="88" x="0" class="er attributeBoxEven"/><text style="dominant-baseline: middle; font-size: 10.2px;" transform="translate(5,99)" y="0" x="0" id="text-entity-publicstaffs-14d9d75b-dcfa-56e9-9715-711782376447-attr-4-type" class="er entityLabel">varchar</text><rect height="22" width="80.171875" y="88" x="74.296875" class="er attributeBoxEven"/><text style="dominant-baseline: middle; font-size: 10.2px;" transform="translate(79.296875,99)" y="0" x="0" id="text-entity-publicstaffs-14d9d75b-dcfa-56e9-9715-711782376447-attr-4-name" class="er entityLabel">auth_uid</text><rect height="22" width="24.456573486328125" y="88" x="154.46875" class="er attributeBoxEven"/><text style="dominant-baseline: middle; font-size: 10.2px;" transform="translate(159.46875,99)" y="0" x="0" id="text-entity-publicstaffs-14d9d75b-dcfa-56e9-9715-711782376447-attr-4-key" class="er entityLabel">UK</text><rect height="22" width="74.296875" y="110" x="0" class="er attributeBoxOdd"/><text style="dominant-baseline: middle; font-size: 10.2px;" transform="translate(5,121)" y="0" x="0" id="text-entity-publicstaffs-14d9d75b-dcfa-56e9-9715-711782376447-attr-5-type" class="er entityLabel">varchar</text><rect height="22" width="80.171875" y="110" x="74.296875" class="er attributeBoxOdd"/><text style="dominant-baseline: middle; font-size: 10.2px;" transform="translate(79.296875,121)" y="0" x="0" id="text-entity-publicstaffs-14d9d75b-dcfa-56e9-9715-711782376447-attr-5-name" class="er entityLabel">display_name</text><rect height="22" width="24.456573486328125" y="110" x="154.46875" class="er attributeBoxOdd"/><text style="dominant-baseline: middle; font-size: 10.2px;" transform="translate(159.46875,121)" y="0" x="0" id="text-entity-publicstaffs-14d9d75b-dcfa-56e9-9715-711782376447-attr-5-key" class="er entityLabel"/><rect height="22" width="74.296875" y="132" x="0" class="er attributeBoxEven"/><text style="dominant-baseline: middle; font-size: 10.2px;" transform="translate(5,143)" y="0" x="0" id="text-entity-publicstaffs-14d9d75b-dcfa-56e9-9715-711782376447-attr-6-type" class="er entityLabel">varchar</text><rect height="22" width="80.171875" y="132" x="74.296875" class="er attributeBoxEven"/><text style="dominant-baseline: middle; font-size: 10.2px;" transform="translate(79.296875,143)" y="0" x="0" id="text-entity-publicstaffs-14d9d75b-dcfa-56e9-9715-711782376447-attr-6-name" class="er entityLabel">image_path</text><rect height="22" width="24.456573486328125" y="132" x="154.46875" class="er attributeBoxEven"/><text style="dominant-baseline: middle; font-size: 10.2px;" transform="translate(159.46875,143)" y="0" x="0" id="text-entity-publicstaffs-14d9d75b-dcfa-56e9-9715-711782376447-attr-6-key" class="er entityLabel"/><rect height="21" width="74.296875" y="154" x="0" class="er attributeBoxOdd"/><text style="dominant-baseline: middle; font-size: 10.2px;" transform="translate(5,164.5)" y="0" x="0" id="text-entity-publicstaffs-14d9d75b-dcfa-56e9-9715-711782376447-attr-7-type" class="er entityLabel">varchar</text><rect height="21" width="80.171875" y="154" x="74.296875" class="er attributeBoxOdd"/><text style="dominant-baseline: middle; font-size: 10.2px;" transform="translate(79.296875,164.5)" y="0" x="0" id="text-entity-publicstaffs-14d9d75b-dcfa-56e9-9715-711782376447-attr-7-name" class="er entityLabel">email</text><rect height="21" width="24.456573486328125" y="154" x="154.46875" class="er attributeBoxOdd"/><text style="dominant-baseline: middle; font-size: 10.2px;" transform="translate(159.46875,164.5)" y="0" x="0" id="text-entity-publicstaffs-14d9d75b-dcfa-56e9-9715-711782376447-attr-7-key" class="er entityLabel">UK</text><rect height="22" width="74.296875" y="175" x="0" class="er attributeBoxEven"/><text style="dominant-baseline: middle; font-size: 10.2px;" transform="translate(5,186)" y="0" x="0" id="text-entity-publicstaffs-14d9d75b-dcfa-56e9-9715-711782376447-attr-8-type" class="er entityLabel">timestamptz</text><rect height="22" width="80.171875" y="175" x="74.296875" class="er attributeBoxEven"/><text style="dominant-baseline: middle; font-size: 10.2px;" transform="translate(79.296875,186)" y="0" x="0" id="text-entity-publicstaffs-14d9d75b-dcfa-56e9-9715-711782376447-attr-8-name" class="er entityLabel">created_at</text><rect height="22" width="24.456573486328125" y="175" x="154.46875" class="er attributeBoxEven"/><text style="dominant-baseline: middle; font-size: 10.2px;" transform="translate(159.46875,186)" y="0" x="0" id="text-entity-publicstaffs-14d9d75b-dcfa-56e9-9715-711782376447-attr-8-key" class="er entityLabel"/><rect height="22" width="74.296875" y="197" x="0" class="er attributeBoxOdd"/><text style="dominant-baseline: middle; font-size: 10.2px;" transform="translate(5,208)" y="0" x="0" id="text-entity-publicstaffs-14d9d75b-dcfa-56e9-9715-711782376447-attr-9-type" class="er entityLabel">timestamptz</text><rect height="22" width="80.171875" y="197" x="74.296875" class="er attributeBoxOdd"/><text style="dominant-baseline: middle; font-size: 10.2px;" transform="translate(79.296875,208)" y="0" x="0" id="text-entity-publicstaffs-14d9d75b-dcfa-56e9-9715-711782376447-attr-9-name" class="er entityLabel">updated_at</text><rect height="22" width="24.456573486328125" y="197" x="154.46875" class="er attributeBoxOdd"/><text style="dominant-baseline: middle; font-size: 10.2px;" transform="translate(159.46875,208)" y="0" x="0" id="text-entity-publicstaffs-14d9d75b-dcfa-56e9-9715-711782376447-attr-9-key" class="er entityLabel"/></g><rect height="14" width="67" y="173.84326171875" x="65.19467163085938" class="er relationshipLabelBox"/><text style="text-anchor: middle; dominant-baseline: middle; font-size: 12px;" y="180.84326171875" x="98.69467163085938" id="rel1" class="er relationshipLabel">foreign key</text><rect height="14" width="67" y="173.84310913085938" x="289.02313232421875" class="er relationshipLabelBox"/><text style="text-anchor: middle; dominant-baseline: middle; font-size: 12px;" y="180.84310913085938" x="322.52313232421875" id="rel2" class="er relationshipLabel">foreign key</text><rect height="14" width="67" y="161.25039672851562" x="816.5812377929688" class="er relationshipLabelBox"/><text style="text-anchor: middle; dominant-baseline: middle; font-size: 12px;" y="168.25039672851562" x="850.0812377929688" id="rel3" class="er relationshipLabel">foreign key</text><rect height="14" width="67" y="177.11985778808594" x="1050.0421142578125" class="er relationshipLabelBox"/><text style="text-anchor: middle; dominant-baseline: middle; font-size: 12px;" y="184.11985778808594" x="1083.5421142578125" id="rel4" class="er relationshipLabel">foreign key</text></svg>