<svg aria-roledescription="er" role="graphics-document document" viewBox="0 0 1294.16357421875 469" style="max-width: 1294.16px; background-color: white;" xmlns:xlink="http://www.w3.org/1999/xlink" xmlns="http://www.w3.org/2000/svg" width="100%" id="my-svg"><style>#my-svg{font-family:"trebuchet ms",verdana,arial,sans-serif;font-size:16px;fill:#333;}#my-svg .error-icon{fill:#552222;}#my-svg .error-text{fill:#552222;stroke:#552222;}#my-svg .edge-thickness-normal{stroke-width:1px;}#my-svg .edge-thickness-thick{stroke-width:3.5px;}#my-svg .edge-pattern-solid{stroke-dasharray:0;}#my-svg .edge-thickness-invisible{stroke-width:0;fill:none;}#my-svg .edge-pattern-dashed{stroke-dasharray:3;}#my-svg .edge-pattern-dotted{stroke-dasharray:2;}#my-svg .marker{fill:#333333;stroke:#333333;}#my-svg .marker.cross{stroke:#333333;}#my-svg svg{font-family:"trebuchet ms",verdana,arial,sans-serif;font-size:16px;}#my-svg p{margin:0;}#my-svg .entityBox{fill:#ECECFF;stroke:#9370DB;}#my-svg .attributeBoxOdd{fill:#ffffff;stroke:#9370DB;}#my-svg .attributeBoxEven{fill:#f2f2f2;stroke:#9370DB;}#my-svg .relationshipLabelBox{fill:hsl(80, 100%, 96.2745098039%);opacity:0.7;background-color:hsl(80, 100%, 96.2745098039%);}#my-svg .relationshipLabelBox rect{opacity:0.5;}#my-svg .relationshipLine{stroke:#333333;}#my-svg .entityTitleText{text-anchor:middle;font-size:18px;fill:#333;}#my-svg #MD_PARENT_START{fill:#f5f5f5!important;stroke:#333333!important;stroke-width:1;}#my-svg #MD_PARENT_END{fill:#f5f5f5!important;stroke:#333333!important;stroke-width:1;}#my-svg :root{--mermaid-font-family:"trebuchet ms",verdana,arial,sans-serif;}</style><g/><defs><marker orient="auto" markerHeight="240" markerWidth="190" refY="7" refX="0" id="MD_PARENT_START"><path d="M 18,7 L9,13 L1,7 L9,1 Z"/></marker></defs><defs><marker orient="auto" markerHeight="28" markerWidth="20" refY="7" refX="19" id="MD_PARENT_END"><path d="M 18,7 L9,13 L1,7 L9,1 Z"/></marker></defs><defs><marker orient="auto" markerHeight="18" markerWidth="18" refY="9" refX="0" id="ONLY_ONE_START"><path d="M9,0 L9,18 M15,0 L15,18" fill="none" stroke="gray"/></marker></defs><defs><marker orient="auto" markerHeight="18" markerWidth="18" refY="9" refX="18" id="ONLY_ONE_END"><path d="M3,0 L3,18 M9,0 L9,18" fill="none" stroke="gray"/></marker></defs><defs><marker orient="auto" markerHeight="18" markerWidth="30" refY="9" refX="0" id="ZERO_OR_ONE_START"><circle r="6" cy="9" cx="21" fill="white" stroke="gray"/><path d="M9,0 L9,18" fill="none" stroke="gray"/></marker></defs><defs><marker orient="auto" markerHeight="18" markerWidth="30" refY="9" refX="30" id="ZERO_OR_ONE_END"><circle r="6" cy="9" cx="9" fill="white" stroke="gray"/><path d="M21,0 L21,18" fill="none" stroke="gray"/></marker></defs><defs><marker orient="auto" markerHeight="36" markerWidth="45" refY="18" refX="18" id="ONE_OR_MORE_START"><path d="M0,18 Q 18,0 36,18 Q 18,36 0,18 M42,9 L42,27" fill="none" stroke="gray"/></marker></defs><defs><marker orient="auto" markerHeight="36" markerWidth="45" refY="18" refX="27" id="ONE_OR_MORE_END"><path d="M3,9 L3,27 M9,18 Q27,0 45,18 Q27,36 9,18" fill="none" stroke="gray"/></marker></defs><defs><marker orient="auto" markerHeight="36" markerWidth="57" refY="18" refX="18" id="ZERO_OR_MORE_START"><circle r="6" cy="18" cx="48" fill="white" stroke="gray"/><path d="M0,18 Q18,0 36,18 Q18,36 0,18" fill="none" stroke="gray"/></marker></defs><defs><marker orient="auto" markerHeight="36" markerWidth="57" refY="18" refX="39" id="ZERO_OR_MORE_END"><circle r="6" cy="18" cx="9" fill="white" stroke="gray"/><path d="M21,18 Q39,0 57,18 Q39,36 21,18" fill="none" stroke="gray"/></marker></defs><path style="stroke: gray; fill: none;" marker-start="url(#ONLY_ONE_START)" marker-end="url(#ZERO_OR_MORE_END)" d="M93.117,97.5L93.117,111.25C93.117,125,93.117,152.5,102.643,178.25C112.169,204,131.22,228,140.746,240L150.272,252" class="er relationshipLine"/><path style="stroke: gray; fill: none;" marker-start="url(#ONLY_ONE_START)" marker-end="url(#ZERO_OR_MORE_END)" d="M346.344,97.5L346.344,111.25C346.344,125,346.344,152.5,336.818,178.25C327.292,204,308.241,228,298.715,240L289.189,252" class="er relationshipLine"/><path style="stroke: gray; fill: none;" marker-start="url(#ONLY_ONE_START)" marker-end="url(#ZERO_OR_MORE_END)" d="M878.942,97.5L878.942,111.25C878.942,125,878.942,152.5,886.304,174.583C893.666,196.667,908.389,213.333,915.751,221.667L923.112,230" class="er relationshipLine"/><path style="stroke: gray; fill: none;" marker-start="url(#ONLY_ONE_START)" marker-end="url(#ZERO_OR_MORE_END)" d="M1160.748,130L1160.748,138.333C1160.748,146.667,1160.748,163.333,1153.387,180C1146.025,196.667,1131.301,213.333,1123.94,221.667L1116.578,230" class="er relationshipLine"/><g transform="translate(20,52.5 )" id="entity-maindbassettypes-69f50092-0058-522c-9c13-ac5ea5c8046f"><rect height="45" width="146.234375" y="0" x="0" class="er entityBox"/><text style="dominant-baseline: middle; text-anchor: middle; font-size: 12px;" transform="translate(73.1171875,12)" y="0" x="0" id="text-entity-maindbassettypes-69f50092-0058-522c-9c13-ac5ea5c8046f" class="er entityLabel">maindbasset_types</text><rect height="21" width="65.13213348388672" y="24" x="0" class="er attributeBoxOdd"/><text style="dominant-baseline: middle; font-size: 10.2px;" transform="translate(5,34.5)" y="0" x="0" id="text-entity-maindbassettypes-69f50092-0058-522c-9c13-ac5ea5c8046f-attr-1-type" class="er entityLabel">VARCHAR</text><rect height="21" width="25.75713348388672" y="24" x="65.13213348388672" class="er attributeBoxOdd"/><text style="dominant-baseline: middle; font-size: 10.2px;" transform="translate(70.13213348388672,34.5)" y="0" x="0" id="text-entity-maindbassettypes-69f50092-0058-522c-9c13-ac5ea5c8046f-attr-1-name" class="er entityLabel">id</text><rect height="21" width="29.587974548339844" y="24" x="90.88926696777344" class="er attributeBoxOdd"/><text style="dominant-baseline: middle; font-size: 10.2px;" transform="translate(95.88926696777344,34.5)" y="0" x="0" id="text-entity-maindbassettypes-69f50092-0058-522c-9c13-ac5ea5c8046f-attr-1-key" class="er entityLabel">PK</text><rect height="21" width="25.75713348388672" y="24" x="120.47724151611328" class="er attributeBoxOdd"/><text style="dominant-baseline: middle; font-size: 10.2px;" transform="translate(125.47724151611328,34.5)" y="0" x="0" id="text-entity-maindbassettypes-69f50092-0058-522c-9c13-ac5ea5c8046f-attr-1-comment" class="er entityLabel">id</text></g><g transform="translate(266.234375,52.5 )" id="entity-maindbcontenttypes-83c58ade-ac06-5bc2-8783-f28269a1d2a8"><rect height="45" width="160.21875" y="0" x="0" class="er entityBox"/><text style="dominant-baseline: middle; text-anchor: middle; font-size: 12px;" transform="translate(80.109375,12)" y="0" x="0" id="text-entity-maindbcontenttypes-83c58ade-ac06-5bc2-8783-f28269a1d2a8" class="er entityLabel">maindbcontent_types</text><rect height="21" width="68.62822723388672" y="24" x="0" class="er attributeBoxOdd"/><text style="dominant-baseline: middle; font-size: 10.2px;" transform="translate(5,34.5)" y="0" x="0" id="text-entity-maindbcontenttypes-83c58ade-ac06-5bc2-8783-f28269a1d2a8-attr-1-type" class="er entityLabel">VARCHAR</text><rect height="21" width="29.25322723388672" y="24" x="68.62822723388672" class="er attributeBoxOdd"/><text style="dominant-baseline: middle; font-size: 10.2px;" transform="translate(73.62822723388672,34.5)" y="0" x="0" id="text-entity-maindbcontenttypes-83c58ade-ac06-5bc2-8783-f28269a1d2a8-attr-1-name" class="er entityLabel">id</text><rect height="21" width="33.084068298339844" y="24" x="97.88145446777344" class="er attributeBoxOdd"/><text style="dominant-baseline: middle; font-size: 10.2px;" transform="translate(102.88145446777344,34.5)" y="0" x="0" id="text-entity-maindbcontenttypes-83c58ade-ac06-5bc2-8783-f28269a1d2a8-attr-1-key" class="er entityLabel">PK</text><rect height="21" width="29.25322723388672" y="24" x="130.96552276611328" class="er attributeBoxOdd"/><text style="dominant-baseline: middle; font-size: 10.2px;" transform="translate(135.96552276611328,34.5)" y="0" x="0" id="text-entity-maindbcontenttypes-83c58ade-ac06-5bc2-8783-f28269a1d2a8-attr-1-comment" class="er entityLabel">id</text></g><g transform="translate(526.453125,20 )" id="entity-maindbgoosedbversion-61c66875-7fb5-5d3e-a944-1a9cabf3abde"><rect height="110" width="184.09844970703125" y="0" x="0" class="er entityBox"/><text style="dominant-baseline: middle; text-anchor: middle; font-size: 12px;" transform="translate(92.04922485351562,12)" y="0" x="0" id="text-entity-maindbgoosedbversion-61c66875-7fb5-5d3e-a944-1a9cabf3abde" class="er entityLabel">maindbgoose_db_version</text><rect height="21" width="99.23635864257812" y="24" x="0" class="er attributeBoxOdd"/><text style="dominant-baseline: middle; font-size: 10.2px;" transform="translate(5,34.5)" y="0" x="0" id="text-entity-maindbgoosedbversion-61c66875-7fb5-5d3e-a944-1a9cabf3abde-attr-1-type" class="er entityLabel">BIGINTUNSIGNED</text><rect height="21" width="61.71875" y="24" x="99.23635864257812" class="er attributeBoxOdd"/><text style="dominant-baseline: middle; font-size: 10.2px;" transform="translate(104.23635864257812,34.5)" y="0" x="0" id="text-entity-maindbgoosedbversion-61c66875-7fb5-5d3e-a944-1a9cabf3abde-attr-1-name" class="er entityLabel">id</text><rect height="21" width="23.143341064453125" y="24" x="160.95510864257812" class="er attributeBoxOdd"/><text style="dominant-baseline: middle; font-size: 10.2px;" transform="translate(165.95510864257812,34.5)" y="0" x="0" id="text-entity-maindbgoosedbversion-61c66875-7fb5-5d3e-a944-1a9cabf3abde-attr-1-key" class="er entityLabel">PK</text><rect height="22" width="99.23635864257812" y="45" x="0" class="er attributeBoxEven"/><text style="dominant-baseline: middle; font-size: 10.2px;" transform="translate(5,56)" y="0" x="0" id="text-entity-maindbgoosedbversion-61c66875-7fb5-5d3e-a944-1a9cabf3abde-attr-2-type" class="er entityLabel">BIGINT</text><rect height="22" width="61.71875" y="45" x="99.23635864257812" class="er attributeBoxEven"/><text style="dominant-baseline: middle; font-size: 10.2px;" transform="translate(104.23635864257812,56)" y="0" x="0" id="text-entity-maindbgoosedbversion-61c66875-7fb5-5d3e-a944-1a9cabf3abde-attr-2-name" class="er entityLabel">version_id</text><rect height="22" width="23.143341064453125" y="45" x="160.95510864257812" class="er attributeBoxEven"/><text style="dominant-baseline: middle; font-size: 10.2px;" transform="translate(165.95510864257812,56)" y="0" x="0" id="text-entity-maindbgoosedbversion-61c66875-7fb5-5d3e-a944-1a9cabf3abde-attr-2-key" class="er entityLabel"/><rect height="22" width="99.23635864257812" y="67" x="0" class="er attributeBoxOdd"/><text style="dominant-baseline: middle; font-size: 10.2px;" transform="translate(5,78)" y="0" x="0" id="text-entity-maindbgoosedbversion-61c66875-7fb5-5d3e-a944-1a9cabf3abde-attr-3-type" class="er entityLabel">BIT</text><rect height="22" width="61.71875" y="67" x="99.23635864257812" class="er attributeBoxOdd"/><text style="dominant-baseline: middle; font-size: 10.2px;" transform="translate(104.23635864257812,78)" y="0" x="0" id="text-entity-maindbgoosedbversion-61c66875-7fb5-5d3e-a944-1a9cabf3abde-attr-3-name" class="er entityLabel">is_applied</text><rect height="22" width="23.143341064453125" y="67" x="160.95510864257812" class="er attributeBoxOdd"/><text style="dominant-baseline: middle; font-size: 10.2px;" transform="translate(165.95510864257812,78)" y="0" x="0" id="text-entity-maindbgoosedbversion-61c66875-7fb5-5d3e-a944-1a9cabf3abde-attr-3-key" class="er entityLabel"/><rect height="21" width="99.23635864257812" y="89" x="0" class="er attributeBoxEven"/><text style="dominant-baseline: middle; font-size: 10.2px;" transform="translate(5,99.5)" y="0" x="0" id="text-entity-maindbgoosedbversion-61c66875-7fb5-5d3e-a944-1a9cabf3abde-attr-4-type" class="er entityLabel">TIMESTAMP</text><rect height="21" width="61.71875" y="89" x="99.23635864257812" class="er attributeBoxEven"/><text style="dominant-baseline: middle; font-size: 10.2px;" transform="translate(104.23635864257812,99.5)" y="0" x="0" id="text-entity-maindbgoosedbversion-61c66875-7fb5-5d3e-a944-1a9cabf3abde-attr-4-name" class="er entityLabel">tstamp</text><rect height="21" width="23.143341064453125" y="89" x="160.95510864257812" class="er attributeBoxEven"/><text style="dominant-baseline: middle; font-size: 10.2px;" transform="translate(165.95510864257812,99.5)" y="0" x="0" id="text-entity-maindbgoosedbversion-61c66875-7fb5-5d3e-a944-1a9cabf3abde-attr-4-key" class="er entityLabel"/></g><g transform="translate(810.5515747070312,52.5 )" id="entity-maindbstaffroles-20ea415b-a598-546c-93d9-2640a7dfeb90"><rect height="45" width="136.78125" y="0" x="0" class="er entityBox"/><text style="dominant-baseline: middle; text-anchor: middle; font-size: 12px;" transform="translate(68.390625,12)" y="0" x="0" id="text-entity-maindbstaffroles-20ea415b-a598-546c-93d9-2640a7dfeb90" class="er entityLabel">maindbstaff_roles</text><rect height="21" width="62.76885223388672" y="24" x="0" class="er attributeBoxOdd"/><text style="dominant-baseline: middle; font-size: 10.2px;" transform="translate(5,34.5)" y="0" x="0" id="text-entity-maindbstaffroles-20ea415b-a598-546c-93d9-2640a7dfeb90-attr-1-type" class="er entityLabel">VARCHAR</text><rect height="21" width="23.39385223388672" y="24" x="62.76885223388672" class="er attributeBoxOdd"/><text style="dominant-baseline: middle; font-size: 10.2px;" transform="translate(67.76885223388672,34.5)" y="0" x="0" id="text-entity-maindbstaffroles-20ea415b-a598-546c-93d9-2640a7dfeb90-attr-1-name" class="er entityLabel">id</text><rect height="21" width="27.224693298339844" y="24" x="86.16270446777344" class="er attributeBoxOdd"/><text style="dominant-baseline: middle; font-size: 10.2px;" transform="translate(91.16270446777344,34.5)" y="0" x="0" id="text-entity-maindbstaffroles-20ea415b-a598-546c-93d9-2640a7dfeb90-attr-1-key" class="er entityLabel">PK</text><rect height="21" width="23.39385223388672" y="24" x="113.38739776611328" class="er attributeBoxOdd"/><text style="dominant-baseline: middle; font-size: 10.2px;" transform="translate(118.38739776611328,34.5)" y="0" x="0" id="text-entity-maindbstaffroles-20ea415b-a598-546c-93d9-2640a7dfeb90-attr-1-comment" class="er entityLabel">id</text></g><g transform="translate(1047.3328247070312,20 )" id="entity-maindbtenants-78fea559-b138-51fa-b234-0637234c0e00"><rect height="110" width="226.83084106445312" y="0" x="0" class="er entityBox"/><text style="dominant-baseline: middle; text-anchor: middle; font-size: 12px;" transform="translate(113.41542053222656,12)" y="0" x="0" id="text-entity-maindbtenants-78fea559-b138-51fa-b234-0637234c0e00" class="er entityLabel">maindbtenants</text><rect height="21" width="60.96875" y="24" x="0" class="er attributeBoxOdd"/><text style="dominant-baseline: middle; font-size: 10.2px;" transform="translate(5,34.5)" y="0" x="0" id="text-entity-maindbtenants-78fea559-b138-51fa-b234-0637234c0e00-attr-1-type" class="er entityLabel">VARCHAR</text><rect height="21" width="67.703125" y="24" x="60.96875" class="er attributeBoxOdd"/><text style="dominant-baseline: middle; font-size: 10.2px;" transform="translate(65.96875,34.5)" y="0" x="0" id="text-entity-maindbtenants-78fea559-b138-51fa-b234-0637234c0e00-attr-1-name" class="er entityLabel">id</text><rect height="21" width="23.143341064453125" y="24" x="128.671875" class="er attributeBoxOdd"/><text style="dominant-baseline: middle; font-size: 10.2px;" transform="translate(133.671875,34.5)" y="0" x="0" id="text-entity-maindbtenants-78fea559-b138-51fa-b234-0637234c0e00-attr-1-key" class="er entityLabel">PK</text><rect height="21" width="75.015625" y="24" x="151.81521606445312" class="er attributeBoxOdd"/><text style="dominant-baseline: middle; font-size: 10.2px;" transform="translate(156.81521606445312,34.5)" y="0" x="0" id="text-entity-maindbtenants-78fea559-b138-51fa-b234-0637234c0e00-attr-1-comment" class="er entityLabel">id</text><rect height="21" width="60.96875" y="45" x="0" class="er attributeBoxEven"/><text style="dominant-baseline: middle; font-size: 10.2px;" transform="translate(5,55.5)" y="0" x="0" id="text-entity-maindbtenants-78fea559-b138-51fa-b234-0637234c0e00-attr-2-type" class="er entityLabel">VARCHAR</text><rect height="21" width="67.703125" y="45" x="60.96875" class="er attributeBoxEven"/><text style="dominant-baseline: middle; font-size: 10.2px;" transform="translate(65.96875,55.5)" y="0" x="0" id="text-entity-maindbtenants-78fea559-b138-51fa-b234-0637234c0e00-attr-2-name" class="er entityLabel">name</text><rect height="21" width="23.143341064453125" y="45" x="128.671875" class="er attributeBoxEven"/><text style="dominant-baseline: middle; font-size: 10.2px;" transform="translate(133.671875,55.5)" y="0" x="0" id="text-entity-maindbtenants-78fea559-b138-51fa-b234-0637234c0e00-attr-2-key" class="er entityLabel"/><rect height="21" width="75.015625" y="45" x="151.81521606445312" class="er attributeBoxEven"/><text style="dominant-baseline: middle; font-size: 10.2px;" transform="translate(156.81521606445312,55.5)" y="0" x="0" id="text-entity-maindbtenants-78fea559-b138-51fa-b234-0637234c0e00-attr-2-comment" class="er entityLabel">name</text><rect height="22" width="60.96875" y="66" x="0" class="er attributeBoxOdd"/><text style="dominant-baseline: middle; font-size: 10.2px;" transform="translate(5,77)" y="0" x="0" id="text-entity-maindbtenants-78fea559-b138-51fa-b234-0637234c0e00-attr-3-type" class="er entityLabel">DATETIME</text><rect height="22" width="67.703125" y="66" x="60.96875" class="er attributeBoxOdd"/><text style="dominant-baseline: middle; font-size: 10.2px;" transform="translate(65.96875,77)" y="0" x="0" id="text-entity-maindbtenants-78fea559-b138-51fa-b234-0637234c0e00-attr-3-name" class="er entityLabel">created_at</text><rect height="22" width="23.143341064453125" y="66" x="128.671875" class="er attributeBoxOdd"/><text style="dominant-baseline: middle; font-size: 10.2px;" transform="translate(133.671875,77)" y="0" x="0" id="text-entity-maindbtenants-78fea559-b138-51fa-b234-0637234c0e00-attr-3-key" class="er entityLabel"/><rect height="22" width="75.015625" y="66" x="151.81521606445312" class="er attributeBoxOdd"/><text style="dominant-baseline: middle; font-size: 10.2px;" transform="translate(156.81521606445312,77)" y="0" x="0" id="text-entity-maindbtenants-78fea559-b138-51fa-b234-0637234c0e00-attr-3-comment" class="er entityLabel">created date</text><rect height="22" width="60.96875" y="88" x="0" class="er attributeBoxEven"/><text style="dominant-baseline: middle; font-size: 10.2px;" transform="translate(5,99)" y="0" x="0" id="text-entity-maindbtenants-78fea559-b138-51fa-b234-0637234c0e00-attr-4-type" class="er entityLabel">DATETIME</text><rect height="22" width="67.703125" y="88" x="60.96875" class="er attributeBoxEven"/><text style="dominant-baseline: middle; font-size: 10.2px;" transform="translate(65.96875,99)" y="0" x="0" id="text-entity-maindbtenants-78fea559-b138-51fa-b234-0637234c0e00-attr-4-name" class="er entityLabel">updated_at</text><rect height="22" width="23.143341064453125" y="88" x="128.671875" class="er attributeBoxEven"/><text style="dominant-baseline: middle; font-size: 10.2px;" transform="translate(133.671875,99)" y="0" x="0" id="text-entity-maindbtenants-78fea559-b138-51fa-b234-0637234c0e00-attr-4-key" class="er entityLabel"/><rect height="22" width="75.015625" y="88" x="151.81521606445312" class="er attributeBoxEven"/><text style="dominant-baseline: middle; font-size: 10.2px;" transform="translate(156.81521606445312,99)" y="0" x="0" id="text-entity-maindbtenants-78fea559-b138-51fa-b234-0637234c0e00-attr-4-comment" class="er entityLabel">update date</text></g><g transform="translate(100.81504821777344,252 )" id="entity-maindbassets-4531cffa-f2eb-546a-a2a9-9e4513bd7358"><rect height="175" width="237.83084106445312" y="0" x="0" class="er entityBox"/><text style="dominant-baseline: middle; text-anchor: middle; font-size: 12px;" transform="translate(118.91542053222656,12)" y="0" x="0" id="text-entity-maindbassets-4531cffa-f2eb-546a-a2a9-9e4513bd7358" class="er entityLabel">maindbassets</text><rect height="21" width="60.96875" y="24" x="0" class="er attributeBoxOdd"/><text style="dominant-baseline: middle; font-size: 10.2px;" transform="translate(5,34.5)" y="0" x="0" id="text-entity-maindbassets-4531cffa-f2eb-546a-a2a9-9e4513bd7358-attr-1-type" class="er entityLabel">VARCHAR</text><rect height="21" width="76.859375" y="24" x="60.96875" class="er attributeBoxOdd"/><text style="dominant-baseline: middle; font-size: 10.2px;" transform="translate(65.96875,34.5)" y="0" x="0" id="text-entity-maindbassets-4531cffa-f2eb-546a-a2a9-9e4513bd7358-attr-1-name" class="er entityLabel">id</text><rect height="21" width="23.143341064453125" y="24" x="137.828125" class="er attributeBoxOdd"/><text style="dominant-baseline: middle; font-size: 10.2px;" transform="translate(142.828125,34.5)" y="0" x="0" id="text-entity-maindbassets-4531cffa-f2eb-546a-a2a9-9e4513bd7358-attr-1-key" class="er entityLabel">PK</text><rect height="21" width="76.859375" y="24" x="160.97146606445312" class="er attributeBoxOdd"/><text style="dominant-baseline: middle; font-size: 10.2px;" transform="translate(165.97146606445312,34.5)" y="0" x="0" id="text-entity-maindbassets-4531cffa-f2eb-546a-a2a9-9e4513bd7358-attr-1-comment" class="er entityLabel">id</text><rect height="22" width="60.96875" y="45" x="0" class="er attributeBoxEven"/><text style="dominant-baseline: middle; font-size: 10.2px;" transform="translate(5,56)" y="0" x="0" id="text-entity-maindbassets-4531cffa-f2eb-546a-a2a9-9e4513bd7358-attr-2-type" class="er entityLabel">VARCHAR</text><rect height="22" width="76.859375" y="45" x="60.96875" class="er attributeBoxEven"/><text style="dominant-baseline: middle; font-size: 10.2px;" transform="translate(65.96875,56)" y="0" x="0" id="text-entity-maindbassets-4531cffa-f2eb-546a-a2a9-9e4513bd7358-attr-2-name" class="er entityLabel">content_type</text><rect height="22" width="23.143341064453125" y="45" x="137.828125" class="er attributeBoxEven"/><text style="dominant-baseline: middle; font-size: 10.2px;" transform="translate(142.828125,56)" y="0" x="0" id="text-entity-maindbassets-4531cffa-f2eb-546a-a2a9-9e4513bd7358-attr-2-key" class="er entityLabel">FK</text><rect height="22" width="76.859375" y="45" x="160.97146606445312" class="er attributeBoxEven"/><text style="dominant-baseline: middle; font-size: 10.2px;" transform="translate(165.97146606445312,56)" y="0" x="0" id="text-entity-maindbassets-4531cffa-f2eb-546a-a2a9-9e4513bd7358-attr-2-comment" class="er entityLabel">content_type</text><rect height="21" width="60.96875" y="67" x="0" class="er attributeBoxOdd"/><text style="dominant-baseline: middle; font-size: 10.2px;" transform="translate(5,77.5)" y="0" x="0" id="text-entity-maindbassets-4531cffa-f2eb-546a-a2a9-9e4513bd7358-attr-3-type" class="er entityLabel">VARCHAR</text><rect height="21" width="76.859375" y="67" x="60.96875" class="er attributeBoxOdd"/><text style="dominant-baseline: middle; font-size: 10.2px;" transform="translate(65.96875,77.5)" y="0" x="0" id="text-entity-maindbassets-4531cffa-f2eb-546a-a2a9-9e4513bd7358-attr-3-name" class="er entityLabel">type</text><rect height="21" width="23.143341064453125" y="67" x="137.828125" class="er attributeBoxOdd"/><text style="dominant-baseline: middle; font-size: 10.2px;" transform="translate(142.828125,77.5)" y="0" x="0" id="text-entity-maindbassets-4531cffa-f2eb-546a-a2a9-9e4513bd7358-attr-3-key" class="er entityLabel">FK</text><rect height="21" width="76.859375" y="67" x="160.97146606445312" class="er attributeBoxOdd"/><text style="dominant-baseline: middle; font-size: 10.2px;" transform="translate(165.97146606445312,77.5)" y="0" x="0" id="text-entity-maindbassets-4531cffa-f2eb-546a-a2a9-9e4513bd7358-attr-3-comment" class="er entityLabel">type</text><rect height="21" width="60.96875" y="88" x="0" class="er attributeBoxEven"/><text style="dominant-baseline: middle; font-size: 10.2px;" transform="translate(5,98.5)" y="0" x="0" id="text-entity-maindbassets-4531cffa-f2eb-546a-a2a9-9e4513bd7358-attr-4-type" class="er entityLabel">TEXT</text><rect height="21" width="76.859375" y="88" x="60.96875" class="er attributeBoxEven"/><text style="dominant-baseline: middle; font-size: 10.2px;" transform="translate(65.96875,98.5)" y="0" x="0" id="text-entity-maindbassets-4531cffa-f2eb-546a-a2a9-9e4513bd7358-attr-4-name" class="er entityLabel">path</text><rect height="21" width="23.143341064453125" y="88" x="137.828125" class="er attributeBoxEven"/><text style="dominant-baseline: middle; font-size: 10.2px;" transform="translate(142.828125,98.5)" y="0" x="0" id="text-entity-maindbassets-4531cffa-f2eb-546a-a2a9-9e4513bd7358-attr-4-key" class="er entityLabel"/><rect height="21" width="76.859375" y="88" x="160.97146606445312" class="er attributeBoxEven"/><text style="dominant-baseline: middle; font-size: 10.2px;" transform="translate(165.97146606445312,98.5)" y="0" x="0" id="text-entity-maindbassets-4531cffa-f2eb-546a-a2a9-9e4513bd7358-attr-4-comment" class="er entityLabel">path</text><rect height="22" width="60.96875" y="109" x="0" class="er attributeBoxOdd"/><text style="dominant-baseline: middle; font-size: 10.2px;" transform="translate(5,120)" y="0" x="0" id="text-entity-maindbassets-4531cffa-f2eb-546a-a2a9-9e4513bd7358-attr-5-type" class="er entityLabel">DATETIME</text><rect height="22" width="76.859375" y="109" x="60.96875" class="er attributeBoxOdd"/><text style="dominant-baseline: middle; font-size: 10.2px;" transform="translate(65.96875,120)" y="0" x="0" id="text-entity-maindbassets-4531cffa-f2eb-546a-a2a9-9e4513bd7358-attr-5-name" class="er entityLabel">expires_at</text><rect height="22" width="23.143341064453125" y="109" x="137.828125" class="er attributeBoxOdd"/><text style="dominant-baseline: middle; font-size: 10.2px;" transform="translate(142.828125,120)" y="0" x="0" id="text-entity-maindbassets-4531cffa-f2eb-546a-a2a9-9e4513bd7358-attr-5-key" class="er entityLabel"/><rect height="22" width="76.859375" y="109" x="160.97146606445312" class="er attributeBoxOdd"/><text style="dominant-baseline: middle; font-size: 10.2px;" transform="translate(165.97146606445312,120)" y="0" x="0" id="text-entity-maindbassets-4531cffa-f2eb-546a-a2a9-9e4513bd7358-attr-5-comment" class="er entityLabel">expires_at</text><rect height="22" width="60.96875" y="131" x="0" class="er attributeBoxEven"/><text style="dominant-baseline: middle; font-size: 10.2px;" transform="translate(5,142)" y="0" x="0" id="text-entity-maindbassets-4531cffa-f2eb-546a-a2a9-9e4513bd7358-attr-6-type" class="er entityLabel">DATETIME</text><rect height="22" width="76.859375" y="131" x="60.96875" class="er attributeBoxEven"/><text style="dominant-baseline: middle; font-size: 10.2px;" transform="translate(65.96875,142)" y="0" x="0" id="text-entity-maindbassets-4531cffa-f2eb-546a-a2a9-9e4513bd7358-attr-6-name" class="er entityLabel">created_at</text><rect height="22" width="23.143341064453125" y="131" x="137.828125" class="er attributeBoxEven"/><text style="dominant-baseline: middle; font-size: 10.2px;" transform="translate(142.828125,142)" y="0" x="0" id="text-entity-maindbassets-4531cffa-f2eb-546a-a2a9-9e4513bd7358-attr-6-key" class="er entityLabel"/><rect height="22" width="76.859375" y="131" x="160.97146606445312" class="er attributeBoxEven"/><text style="dominant-baseline: middle; font-size: 10.2px;" transform="translate(165.97146606445312,142)" y="0" x="0" id="text-entity-maindbassets-4531cffa-f2eb-546a-a2a9-9e4513bd7358-attr-6-comment" class="er entityLabel">created date</text><rect height="22" width="60.96875" y="153" x="0" class="er attributeBoxOdd"/><text style="dominant-baseline: middle; font-size: 10.2px;" transform="translate(5,164)" y="0" x="0" id="text-entity-maindbassets-4531cffa-f2eb-546a-a2a9-9e4513bd7358-attr-7-type" class="er entityLabel">DATETIME</text><rect height="22" width="76.859375" y="153" x="60.96875" class="er attributeBoxOdd"/><text style="dominant-baseline: middle; font-size: 10.2px;" transform="translate(65.96875,164)" y="0" x="0" id="text-entity-maindbassets-4531cffa-f2eb-546a-a2a9-9e4513bd7358-attr-7-name" class="er entityLabel">updated_at</text><rect height="22" width="23.143341064453125" y="153" x="137.828125" class="er attributeBoxOdd"/><text style="dominant-baseline: middle; font-size: 10.2px;" transform="translate(142.828125,164)" y="0" x="0" id="text-entity-maindbassets-4531cffa-f2eb-546a-a2a9-9e4513bd7358-attr-7-key" class="er entityLabel"/><rect height="22" width="76.859375" y="153" x="160.97146606445312" class="er attributeBoxOdd"/><text style="dominant-baseline: middle; font-size: 10.2px;" transform="translate(165.97146606445312,164)" y="0" x="0" id="text-entity-maindbassets-4531cffa-f2eb-546a-a2a9-9e4513bd7358-attr-7-comment" class="er entityLabel">update date</text></g><g transform="translate(896.9606857299805,230 )" id="entity-maindbstaffs-c9330a3f-f7a7-53d4-910b-4155760d1f6b"><rect height="219" width="245.76907348632812" y="0" x="0" class="er entityBox"/><text style="dominant-baseline: middle; text-anchor: middle; font-size: 12px;" transform="translate(122.88453674316406,12)" y="0" x="0" id="text-entity-maindbstaffs-c9330a3f-f7a7-53d4-910b-4155760d1f6b" class="er entityLabel">maindbstaffs</text><rect height="21" width="60.96875" y="24" x="0" class="er attributeBoxOdd"/><text style="dominant-baseline: middle; font-size: 10.2px;" transform="translate(5,34.5)" y="0" x="0" id="text-entity-maindbstaffs-c9330a3f-f7a7-53d4-910b-4155760d1f6b-attr-1-type" class="er entityLabel">VARCHAR</text><rect height="21" width="80.171875" y="24" x="60.96875" class="er attributeBoxOdd"/><text style="dominant-baseline: middle; font-size: 10.2px;" transform="translate(65.96875,34.5)" y="0" x="0" id="text-entity-maindbstaffs-c9330a3f-f7a7-53d4-910b-4155760d1f6b-attr-1-name" class="er entityLabel">id</text><rect height="21" width="24.456573486328125" y="24" x="141.140625" class="er attributeBoxOdd"/><text style="dominant-baseline: middle; font-size: 10.2px;" transform="translate(146.140625,34.5)" y="0" x="0" id="text-entity-maindbstaffs-c9330a3f-f7a7-53d4-910b-4155760d1f6b-attr-1-key" class="er entityLabel">PK</text><rect height="21" width="80.171875" y="24" x="165.59719848632812" class="er attributeBoxOdd"/><text style="dominant-baseline: middle; font-size: 10.2px;" transform="translate(170.59719848632812,34.5)" y="0" x="0" id="text-entity-maindbstaffs-c9330a3f-f7a7-53d4-910b-4155760d1f6b-attr-1-comment" class="er entityLabel">id</text><rect height="22" width="60.96875" y="45" x="0" class="er attributeBoxEven"/><text style="dominant-baseline: middle; font-size: 10.2px;" transform="translate(5,56)" y="0" x="0" id="text-entity-maindbstaffs-c9330a3f-f7a7-53d4-910b-4155760d1f6b-attr-2-type" class="er entityLabel">VARCHAR</text><rect height="22" width="80.171875" y="45" x="60.96875" class="er attributeBoxEven"/><text style="dominant-baseline: middle; font-size: 10.2px;" transform="translate(65.96875,56)" y="0" x="0" id="text-entity-maindbstaffs-c9330a3f-f7a7-53d4-910b-4155760d1f6b-attr-2-name" class="er entityLabel">tenant_id</text><rect height="22" width="24.456573486328125" y="45" x="141.140625" class="er attributeBoxEven"/><text style="dominant-baseline: middle; font-size: 10.2px;" transform="translate(146.140625,56)" y="0" x="0" id="text-entity-maindbstaffs-c9330a3f-f7a7-53d4-910b-4155760d1f6b-attr-2-key" class="er entityLabel">FK</text><rect height="22" width="80.171875" y="45" x="165.59719848632812" class="er attributeBoxEven"/><text style="dominant-baseline: middle; font-size: 10.2px;" transform="translate(170.59719848632812,56)" y="0" x="0" id="text-entity-maindbstaffs-c9330a3f-f7a7-53d4-910b-4155760d1f6b-attr-2-comment" class="er entityLabel">tenant_id</text><rect height="21" width="60.96875" y="67" x="0" class="er attributeBoxOdd"/><text style="dominant-baseline: middle; font-size: 10.2px;" transform="translate(5,77.5)" y="0" x="0" id="text-entity-maindbstaffs-c9330a3f-f7a7-53d4-910b-4155760d1f6b-attr-3-type" class="er entityLabel">VARCHAR</text><rect height="21" width="80.171875" y="67" x="60.96875" class="er attributeBoxOdd"/><text style="dominant-baseline: middle; font-size: 10.2px;" transform="translate(65.96875,77.5)" y="0" x="0" id="text-entity-maindbstaffs-c9330a3f-f7a7-53d4-910b-4155760d1f6b-attr-3-name" class="er entityLabel">role</text><rect height="21" width="24.456573486328125" y="67" x="141.140625" class="er attributeBoxOdd"/><text style="dominant-baseline: middle; font-size: 10.2px;" transform="translate(146.140625,77.5)" y="0" x="0" id="text-entity-maindbstaffs-c9330a3f-f7a7-53d4-910b-4155760d1f6b-attr-3-key" class="er entityLabel">FK</text><rect height="21" width="80.171875" y="67" x="165.59719848632812" class="er attributeBoxOdd"/><text style="dominant-baseline: middle; font-size: 10.2px;" transform="translate(170.59719848632812,77.5)" y="0" x="0" id="text-entity-maindbstaffs-c9330a3f-f7a7-53d4-910b-4155760d1f6b-attr-3-comment" class="er entityLabel">role</text><rect height="22" width="60.96875" y="88" x="0" class="er attributeBoxEven"/><text style="dominant-baseline: middle; font-size: 10.2px;" transform="translate(5,99)" y="0" x="0" id="text-entity-maindbstaffs-c9330a3f-f7a7-53d4-910b-4155760d1f6b-attr-4-type" class="er entityLabel">VARCHAR</text><rect height="22" width="80.171875" y="88" x="60.96875" class="er attributeBoxEven"/><text style="dominant-baseline: middle; font-size: 10.2px;" transform="translate(65.96875,99)" y="0" x="0" id="text-entity-maindbstaffs-c9330a3f-f7a7-53d4-910b-4155760d1f6b-attr-4-name" class="er entityLabel">auth_uid</text><rect height="22" width="24.456573486328125" y="88" x="141.140625" class="er attributeBoxEven"/><text style="dominant-baseline: middle; font-size: 10.2px;" transform="translate(146.140625,99)" y="0" x="0" id="text-entity-maindbstaffs-c9330a3f-f7a7-53d4-910b-4155760d1f6b-attr-4-key" class="er entityLabel">UK</text><rect height="22" width="80.171875" y="88" x="165.59719848632812" class="er attributeBoxEven"/><text style="dominant-baseline: middle; font-size: 10.2px;" transform="translate(170.59719848632812,99)" y="0" x="0" id="text-entity-maindbstaffs-c9330a3f-f7a7-53d4-910b-4155760d1f6b-attr-4-comment" class="er entityLabel">auth_uid</text><rect height="22" width="60.96875" y="110" x="0" class="er attributeBoxOdd"/><text style="dominant-baseline: middle; font-size: 10.2px;" transform="translate(5,121)" y="0" x="0" id="text-entity-maindbstaffs-c9330a3f-f7a7-53d4-910b-4155760d1f6b-attr-5-type" class="er entityLabel">VARCHAR</text><rect height="22" width="80.171875" y="110" x="60.96875" class="er attributeBoxOdd"/><text style="dominant-baseline: middle; font-size: 10.2px;" transform="translate(65.96875,121)" y="0" x="0" id="text-entity-maindbstaffs-c9330a3f-f7a7-53d4-910b-4155760d1f6b-attr-5-name" class="er entityLabel">display_name</text><rect height="22" width="24.456573486328125" y="110" x="141.140625" class="er attributeBoxOdd"/><text style="dominant-baseline: middle; font-size: 10.2px;" transform="translate(146.140625,121)" y="0" x="0" id="text-entity-maindbstaffs-c9330a3f-f7a7-53d4-910b-4155760d1f6b-attr-5-key" class="er entityLabel"/><rect height="22" width="80.171875" y="110" x="165.59719848632812" class="er attributeBoxOdd"/><text style="dominant-baseline: middle; font-size: 10.2px;" transform="translate(170.59719848632812,121)" y="0" x="0" id="text-entity-maindbstaffs-c9330a3f-f7a7-53d4-910b-4155760d1f6b-attr-5-comment" class="er entityLabel">display_name</text><rect height="22" width="60.96875" y="132" x="0" class="er attributeBoxEven"/><text style="dominant-baseline: middle; font-size: 10.2px;" transform="translate(5,143)" y="0" x="0" id="text-entity-maindbstaffs-c9330a3f-f7a7-53d4-910b-4155760d1f6b-attr-6-type" class="er entityLabel">VARCHAR</text><rect height="22" width="80.171875" y="132" x="60.96875" class="er attributeBoxEven"/><text style="dominant-baseline: middle; font-size: 10.2px;" transform="translate(65.96875,143)" y="0" x="0" id="text-entity-maindbstaffs-c9330a3f-f7a7-53d4-910b-4155760d1f6b-attr-6-name" class="er entityLabel">image_path</text><rect height="22" width="24.456573486328125" y="132" x="141.140625" class="er attributeBoxEven"/><text style="dominant-baseline: middle; font-size: 10.2px;" transform="translate(146.140625,143)" y="0" x="0" id="text-entity-maindbstaffs-c9330a3f-f7a7-53d4-910b-4155760d1f6b-attr-6-key" class="er entityLabel"/><rect height="22" width="80.171875" y="132" x="165.59719848632812" class="er attributeBoxEven"/><text style="dominant-baseline: middle; font-size: 10.2px;" transform="translate(170.59719848632812,143)" y="0" x="0" id="text-entity-maindbstaffs-c9330a3f-f7a7-53d4-910b-4155760d1f6b-attr-6-comment" class="er entityLabel">image_path</text><rect height="21" width="60.96875" y="154" x="0" class="er attributeBoxOdd"/><text style="dominant-baseline: middle; font-size: 10.2px;" transform="translate(5,164.5)" y="0" x="0" id="text-entity-maindbstaffs-c9330a3f-f7a7-53d4-910b-4155760d1f6b-attr-7-type" class="er entityLabel">VARCHAR</text><rect height="21" width="80.171875" y="154" x="60.96875" class="er attributeBoxOdd"/><text style="dominant-baseline: middle; font-size: 10.2px;" transform="translate(65.96875,164.5)" y="0" x="0" id="text-entity-maindbstaffs-c9330a3f-f7a7-53d4-910b-4155760d1f6b-attr-7-name" class="er entityLabel">email</text><rect height="21" width="24.456573486328125" y="154" x="141.140625" class="er attributeBoxOdd"/><text style="dominant-baseline: middle; font-size: 10.2px;" transform="translate(146.140625,164.5)" y="0" x="0" id="text-entity-maindbstaffs-c9330a3f-f7a7-53d4-910b-4155760d1f6b-attr-7-key" class="er entityLabel">UK</text><rect height="21" width="80.171875" y="154" x="165.59719848632812" class="er attributeBoxOdd"/><text style="dominant-baseline: middle; font-size: 10.2px;" transform="translate(170.59719848632812,164.5)" y="0" x="0" id="text-entity-maindbstaffs-c9330a3f-f7a7-53d4-910b-4155760d1f6b-attr-7-comment" class="er entityLabel">email</text><rect height="22" width="60.96875" y="175" x="0" class="er attributeBoxEven"/><text style="dominant-baseline: middle; font-size: 10.2px;" transform="translate(5,186)" y="0" x="0" id="text-entity-maindbstaffs-c9330a3f-f7a7-53d4-910b-4155760d1f6b-attr-8-type" class="er entityLabel">DATETIME</text><rect height="22" width="80.171875" y="175" x="60.96875" class="er attributeBoxEven"/><text style="dominant-baseline: middle; font-size: 10.2px;" transform="translate(65.96875,186)" y="0" x="0" id="text-entity-maindbstaffs-c9330a3f-f7a7-53d4-910b-4155760d1f6b-attr-8-name" class="er entityLabel">created_at</text><rect height="22" width="24.456573486328125" y="175" x="141.140625" class="er attributeBoxEven"/><text style="dominant-baseline: middle; font-size: 10.2px;" transform="translate(146.140625,186)" y="0" x="0" id="text-entity-maindbstaffs-c9330a3f-f7a7-53d4-910b-4155760d1f6b-attr-8-key" class="er entityLabel"/><rect height="22" width="80.171875" y="175" x="165.59719848632812" class="er attributeBoxEven"/><text style="dominant-baseline: middle; font-size: 10.2px;" transform="translate(170.59719848632812,186)" y="0" x="0" id="text-entity-maindbstaffs-c9330a3f-f7a7-53d4-910b-4155760d1f6b-attr-8-comment" class="er entityLabel">created date</text><rect height="22" width="60.96875" y="197" x="0" class="er attributeBoxOdd"/><text style="dominant-baseline: middle; font-size: 10.2px;" transform="translate(5,208)" y="0" x="0" id="text-entity-maindbstaffs-c9330a3f-f7a7-53d4-910b-4155760d1f6b-attr-9-type" class="er entityLabel">DATETIME</text><rect height="22" width="80.171875" y="197" x="60.96875" class="er attributeBoxOdd"/><text style="dominant-baseline: middle; font-size: 10.2px;" transform="translate(65.96875,208)" y="0" x="0" id="text-entity-maindbstaffs-c9330a3f-f7a7-53d4-910b-4155760d1f6b-attr-9-name" class="er entityLabel">updated_at</text><rect height="22" width="24.456573486328125" y="197" x="141.140625" class="er attributeBoxOdd"/><text style="dominant-baseline: middle; font-size: 10.2px;" transform="translate(146.140625,208)" y="0" x="0" id="text-entity-maindbstaffs-c9330a3f-f7a7-53d4-910b-4155760d1f6b-attr-9-key" class="er entityLabel"/><rect height="22" width="80.171875" y="197" x="165.59719848632812" class="er attributeBoxOdd"/><text style="dominant-baseline: middle; font-size: 10.2px;" transform="translate(170.59719848632812,208)" y="0" x="0" id="text-entity-maindbstaffs-c9330a3f-f7a7-53d4-910b-4155760d1f6b-attr-9-comment" class="er entityLabel">update date</text></g><rect height="14" width="67" y="174.23226928710938" x="70.29114532470703" class="er relationshipLabelBox"/><text style="text-anchor: middle; dominant-baseline: middle; font-size: 12px;" y="181.23226928710938" x="103.79114532470703" id="rel1" class="er relationshipLabel">foreign key</text><rect height="14" width="67" y="174.23223876953125" x="302.1697998046875" class="er relationshipLabelBox"/><text style="text-anchor: middle; dominant-baseline: middle; font-size: 12px;" y="181.23223876953125" x="335.6697998046875" id="rel2" class="er relationshipLabel">foreign key</text><rect height="14" width="67" y="162.4500732421875" x="851.2467041015625" class="er relationshipLabelBox"/><text style="text-anchor: middle; dominant-baseline: middle; font-size: 12px;" y="169.4500732421875" x="884.7467041015625" id="rel3" class="er relationshipLabel">foreign key</text><rect height="14" width="67" y="178.11106872558594" x="1117.4095458984375" class="er relationshipLabelBox"/><text style="text-anchor: middle; dominant-baseline: middle; font-size: 12px;" y="185.11106872558594" x="1150.9095458984375" id="rel4" class="er relationshipLabel">foreign key</text></svg>